<svg width="18.000000" height="17.000000" viewBox="0 0 18 17" fill="none" xmlns="http://www.w3.org/2000/svg" xmlns:xlink="http://www.w3.org/1999/xlink">
	<desc>
			Created with Pixso.
	</desc>
	<defs/>
	<path d="M8.89 17C8.6 17 8.3 16.9 8.1 16.6C2.69 10.5 1.39 9.1 1.1 8.7C0.39 7.8 0 6.6 0 5.4C0 2.4 2.39 0 5.5 0C6.8 0 8 0.5 9 1.3C10 0.5 11.3 0 12.5 0C15.5 0 18 2.4 18 5.4C18 6.7 17.5 7.9 16.7 8.8L9.69 16.7C9.5 16.9 9.3 17 8.89 17ZM2.89 7.5C3.19 7.9 6.39 11.5 9 14.4L15.2 7.4C15.7 6.9 15.89 6.2 15.89 5.4C15.89 3.6 14.39 2.09 12.6 2.09C11.6 2.09 10.6 2.6 9.89 3.4C9.6 3.7 9.3 3.8 9 3.8C8.69 3.8 8.39 3.6 8.19 3.4C7.5 2.6 6.5 2.09 5.5 2.09C3.69 2.09 2.19 3.6 2.19 5.4C2.1 6.3 2.5 7 2.89 7.5Z" fill="#000000" fill-opacity="1.000000" fill-rule="nonzero"/>
</svg>
