<svg width="47.333374" height="40.000000" viewBox="0 0 47.3334 40" fill="none" xmlns="http://www.w3.org/2000/svg" xmlns:xlink="http://www.w3.org/1999/xlink">
	<desc>
			Created with Pixso.
	</desc>
	<defs/>
	<rect id="social-vk" width="47.333332" height="40.000000" fill="#FFFFFF" fill-opacity="0"/>
	<path id="Vector" d="M35.11 13.94C35.28 13.4 35.11 13 34.32 13L31.69 13C31.02 13 30.72 13.34 30.55 13.73C30.55 13.73 29.21 16.92 27.32 19C26.71 19.6 26.43 19.79 26.1 19.79C25.93 19.79 25.68 19.6 25.68 19.05L25.68 13.94C25.68 13.29 25.5 13 24.94 13L20.81 13C20.4 13 20.14 13.3 20.14 13.59C20.14 14.21 21.09 14.35 21.19 16.1L21.19 19.9C21.19 20.73 21.03 20.88 20.7 20.88C19.81 20.88 17.65 17.67 16.36 14C16.11 13.28 15.86 13 15.19 13L12.56 13C11.81 13 11.66 13.34 11.66 13.73C11.66 14.41 12.55 17.79 15.81 22.28C17.98 25.34 21.03 27 23.81 27C25.48 27 25.69 26.63 25.69 25.99L25.69 23.68C25.69 22.94 25.85 22.8 26.38 22.8C26.77 22.8 27.43 22.99 28.99 24.46C30.77 26.21 31.06 27 32.07 27L34.69 27C35.44 27 35.82 26.63 35.6 25.9C35.36 25.17 34.51 24.12 33.39 22.88C32.77 22.17 31.86 21.4 31.58 21.02C31.19 20.53 31.3 20.31 31.58 19.87C31.58 19.87 34.78 15.45 35.11 13.94L35.11 13.94Z" fill="#83B3D3" fill-opacity="1.000000" fill-rule="evenodd"/>
</svg>
